<svg width="23" height="22" viewBox="0 0 23 22" fill="none" xmlns="http://www.w3.org/2000/svg">
<path d="M5.34591 10.3084C5.34415 10.0741 5.43507 9.84872 5.59885 9.68125C5.76262 9.51378 5.98597 9.41786 6.22018 9.41439H7.71234C7.94944 9.41439 8.17683 9.50858 8.34449 9.67623C8.51214 9.84389 8.60633 10.0713 8.60633 10.3084V15.9352C8.77724 15.8826 8.98759 15.83 9.22423 15.7775C9.38938 15.74 9.53677 15.6472 9.64198 15.5145C9.74719 15.3818 9.80389 15.2172 9.80269 15.0478V8.07999C9.80269 7.84289 9.89688 7.6155 10.0645 7.44784C10.2322 7.28019 10.4596 7.186 10.6967 7.186H12.202C12.4391 7.186 12.6665 7.28019 12.8341 7.44784C13.0018 7.6155 13.096 7.84289 13.096 8.07999V14.5548L13.8322 14.2524C13.9671 14.1945 14.082 14.0982 14.1626 13.9754C14.2433 13.8527 14.2861 13.709 14.2858 13.5622V5.84503C14.2858 5.60793 14.3799 5.38054 14.5476 5.21288C14.7153 5.04523 14.9426 4.95104 15.1797 4.95104H16.6719C16.909 4.95104 17.1364 5.04523 17.3041 5.21288C17.4717 5.38054 17.5659 5.60793 17.5659 5.84503V12.2015C18.9356 11.2404 20.1618 10.0895 21.2076 8.78334C21.357 8.58628 21.4555 8.35544 21.4945 8.11124C21.5335 7.86703 21.5117 7.61699 21.4311 7.38321C20.514 4.74635 18.5871 2.58177 16.0741 1.36565C13.5612 0.149542 10.668 -0.0184881 8.03115 0.898529C5.39429 1.81555 3.22972 3.74249 2.0136 6.25546C0.797491 8.76844 0.629461 11.6616 1.54648 14.2984C1.76103 14.9189 2.03395 15.5175 2.36158 16.0864C2.48716 16.3066 2.67373 16.4858 2.89882 16.6025C3.12391 16.7191 3.37792 16.7682 3.63025 16.7438C3.91291 16.7438 4.28759 16.6846 4.682 16.6386C4.86327 16.6161 5.0301 16.5283 5.15115 16.3915C5.2722 16.2547 5.33912 16.0784 5.33934 15.8958V10.3084" fill="white"/>
<path d="M5.31299 19.3275C6.88157 20.4737 8.73698 21.1631 10.6734 21.3191C12.6099 21.4752 14.5518 21.0918 16.2837 20.2116C18.0156 19.3314 19.4698 17.9886 20.4851 16.3323C21.5004 14.676 22.0372 12.7708 22.0358 10.8281C22.0358 10.5848 22.0358 10.3416 22.0358 10.105C18.1837 15.8436 11.0844 18.5255 5.33928 19.3406" fill="white"/>
</svg>
