<svg width="22" height="24" viewBox="0 0 22 24" fill="none" xmlns="http://www.w3.org/2000/svg">
<path d="M12.7197 9.9979C12.4567 9.98077 12.1946 10.0431 11.9675 10.1767C11.7403 10.3104 11.5586 10.5092 11.4459 10.7474C11.3331 10.9857 11.2946 11.2522 11.3353 11.5126C11.3759 11.773 11.4939 12.0152 11.6739 12.2077C11.8539 12.4002 12.0876 12.5342 12.3447 12.5922C12.6017 12.6502 12.8703 12.6297 13.1156 12.5332C13.3608 12.4367 13.5714 12.2687 13.72 12.0511C13.8686 11.8334 13.9483 11.5761 13.9489 11.3126C13.9559 11.1452 13.9296 10.9781 13.8713 10.821C13.8131 10.6639 13.7242 10.52 13.6098 10.3976C13.4954 10.2753 13.3578 10.1769 13.2049 10.1083C13.0521 10.0396 12.8871 10.0021 12.7197 9.9979ZM8.33519 9.9979C7.98652 9.9979 7.65212 10.1364 7.40557 10.383C7.15902 10.6295 7.02051 10.9639 7.02051 11.3126C7.02051 11.6613 7.15902 11.9957 7.40557 12.2422C7.65212 12.4888 7.98652 12.6273 8.33519 12.6273C8.68387 12.6273 9.01826 12.4888 9.26481 12.2422C9.51136 11.9957 9.64987 11.6613 9.64987 11.3126C9.64987 10.9639 9.51136 10.6295 9.26481 10.383C9.01826 10.1364 8.68387 9.9979 8.33519 9.9979Z" fill="white"/>
<path d="M18.5633 0H2.46504C1.81127 0 1.18428 0.259708 0.722 0.721991C0.259717 1.18427 8.76535e-06 1.81126 8.76535e-06 2.46503V18.5633C-0.000855945 18.8876 0.0622659 19.2088 0.185758 19.5087C0.30925 19.8085 0.490686 20.081 0.719672 20.3106C0.948657 20.5402 1.22069 20.7224 1.52019 20.8467C1.81969 20.971 2.14077 21.0349 2.46504 21.0349H16.0852L15.4278 18.8394L16.966 20.2527L18.4187 21.5674L21.0349 23.8221V2.46503C21.0298 1.81173 20.7675 1.18675 20.3049 0.725395C19.8423 0.26404 19.2167 0.00343624 18.5633 0V0ZM13.9225 15.5593C13.9225 15.5593 13.4887 15.04 13.1271 14.593C13.9964 14.3934 14.7671 13.8928 15.3029 13.1797C14.8701 13.4661 14.4072 13.7042 13.9225 13.8896C13.3618 14.1222 12.7778 14.2941 12.1806 14.4024C11.1533 14.5975 10.0985 14.5975 9.07132 14.4024C8.46625 14.291 7.87387 14.1192 7.30307 13.8896C7.00361 13.7717 6.71165 13.6356 6.42881 13.4821L6.31706 13.4229C6.31706 13.4229 6.31706 13.4229 6.27105 13.4229C6.14778 13.3493 6.02923 13.2681 5.91608 13.1797C6.43479 13.8764 7.17761 14.3731 8.01958 14.5864C7.65804 15.04 7.21105 15.5659 7.21105 15.5659C6.49936 15.5876 5.79322 15.4341 5.15477 15.1189C4.51632 14.8037 3.96512 14.3364 3.54965 13.7582C3.59633 11.3393 4.19435 8.96292 5.29818 6.81006C6.26572 6.05899 7.4405 5.62304 8.66377 5.56111L8.78209 5.70573C7.62774 5.9824 6.55117 6.51731 5.63343 7.2702C5.63343 7.2702 5.89636 7.12558 6.34336 6.92838C7.21099 6.54484 8.13003 6.29016 9.07132 6.17244C9.14363 6.17244 9.20279 6.17244 9.2751 6.17244C11.3564 5.89211 13.4728 6.28361 15.3161 7.28992C14.4395 6.5752 13.4195 6.05734 12.3252 5.77146L12.4895 5.56111C13.7114 5.62014 14.8849 6.05648 15.8485 6.81006C16.9455 8.96455 17.5368 11.3408 17.5773 13.7582C17.158 14.3319 16.6058 14.7954 15.9682 15.1091C15.3305 15.4228 14.6263 15.5772 13.9159 15.5593H13.9225Z" fill="white"/>
</svg>
