<svg width="115" height="47" viewBox="0 0 115 47" fill="none" xmlns="http://www.w3.org/2000/svg">
<g clip-path="url(#clip0)">
<path d="M23.515 47C36.502 47 47.03 36.4787 47.03 23.5C47.03 10.5213 36.502 0 23.515 0C10.528 0 0 10.5213 0 23.5C0 36.4787 10.528 47 23.515 47Z" fill="url(#paint0_linear)"/>
<path d="M23.515 35.7604C30.2904 35.7604 35.7829 30.2714 35.7829 23.5003C35.7829 16.7293 30.2904 11.2402 23.515 11.2402C16.7396 11.2402 11.2471 16.7293 11.2471 23.5003C11.2471 30.2714 16.7396 35.7604 23.515 35.7604Z" fill="url(#paint1_linear)"/>
<path d="M13.4622 11.4556H11.4311C10.6917 11.4556 10.0923 12.0546 10.0923 12.7935C10.0923 13.5324 10.6917 14.1314 11.4311 14.1314H13.4622C14.2016 14.1314 14.8009 13.5324 14.8009 12.7935C14.8009 12.0546 14.2016 11.4556 13.4622 11.4556Z" fill="white"/>
<path d="M33.5188 16.7822H31.4877C30.7483 16.7822 30.1489 17.3812 30.1489 18.1201C30.1489 18.8591 30.7483 19.4581 31.4877 19.4581H33.5188C34.2582 19.4581 34.8576 18.8591 34.8576 18.1201C34.8576 17.3812 34.2582 16.7822 33.5188 16.7822Z" fill="white"/>
<path d="M65.211 15.8539C64.5393 15.5748 63.819 15.4312 63.0916 15.4312C62.3641 15.4312 61.6439 15.5748 60.9722 15.8539C60.406 16.1173 59.9348 16.5488 59.6228 17.0894C59.2968 17.6949 59.136 18.3755 59.1565 19.0628V27.535C59.137 28.215 59.2966 28.8882 59.6193 29.4872C59.9332 30.0263 60.4039 30.4572 60.9686 30.7227C61.6398 31.0041 62.3603 31.149 63.0881 31.149C63.8159 31.149 64.5364 31.0041 65.2075 30.7227C65.772 30.4581 66.2417 30.0269 66.5533 29.4872C66.8787 28.8891 67.0395 28.2155 67.0196 27.535V19.0628C67.0387 18.3813 66.8778 17.7068 66.5533 17.1071C66.2475 16.5598 65.7782 16.1216 65.211 15.8539ZM64.3703 27.1503C64.3756 27.3939 64.3248 27.6354 64.222 27.8563C64.1257 28.0491 63.9729 28.2079 63.7839 28.3117C63.5659 28.424 63.3227 28.4787 63.0775 28.4705C62.8393 28.4762 62.6036 28.4215 62.3922 28.3117C62.213 28.2142 62.0658 28.0671 61.9683 27.8881C61.8654 27.6672 61.8147 27.4256 61.8199 27.182V19.3628C61.8139 19.1192 61.8647 18.8775 61.9683 18.6568C62.0642 18.4658 62.2157 18.3083 62.4028 18.2049C62.6142 18.0951 62.8499 18.0405 63.0881 18.0461C63.3333 18.0379 63.5765 18.0926 63.7945 18.2049C63.983 18.3077 64.1357 18.4653 64.2325 18.6568C64.3361 18.8775 64.3869 19.1192 64.3809 19.3628L64.3703 27.1503Z" fill="white"/>
<path d="M75.5329 15.5894L71.8628 30.956H74.4662L74.936 28.5696H77.9703L78.4401 30.956H81.0434L77.3592 15.5894H75.5329ZM75.4199 26.1232L76.4549 20.8916L77.4863 26.1232H75.4199Z" fill="white"/>
<path d="M91.842 23.087C91.392 22.7668 90.9199 22.479 90.4291 22.2256L90.3938 22.2044L90.3549 22.1833L90.1076 22.0562C90.0264 22.0138 89.9487 21.9785 89.871 21.9432C89.4612 21.7385 89.1433 21.5619 88.9137 21.4172C88.6785 21.2819 88.4731 21.1006 88.3097 20.8842C88.1564 20.6652 88.0772 20.403 88.0836 20.1358V19.1085C88.0749 18.9562 88.0981 18.8038 88.1516 18.661C88.2051 18.5182 88.2878 18.3881 88.3944 18.2789C88.5146 18.1733 88.6545 18.0924 88.806 18.0409C88.9576 17.9894 89.1178 17.9683 89.2775 17.9789C89.4335 17.9688 89.5897 17.9934 89.7351 18.0507C89.8804 18.1081 90.0113 18.1969 90.1182 18.3107C90.3318 18.57 90.4391 18.9005 90.4185 19.2356V20.1217L93.0324 20.0899V19.2144C93.0524 18.5071 92.8996 17.8056 92.5874 17.1705C92.3036 16.6208 91.8571 16.1721 91.3086 15.8855C90.6816 15.5745 89.9879 15.4218 89.2881 15.4407C88.5747 15.4206 87.8669 15.5732 87.2252 15.8855C86.667 16.1683 86.2103 16.6173 85.9182 17.1705C85.6052 17.7941 85.4511 18.4852 85.4696 19.1827V19.9769C85.4476 20.6367 85.5858 21.292 85.8723 21.8867C86.114 22.3668 86.4561 22.7894 86.8755 23.1258C87.3338 23.4648 87.8235 23.7591 88.3379 24.0048L88.4722 24.0683L88.5534 24.1107L88.6311 24.1531C89.0621 24.3649 89.4012 24.5484 89.652 24.6967C89.8891 24.8364 90.0976 25.0197 90.2666 25.2368C90.4261 25.4479 90.5095 25.7066 90.5033 25.9711V27.3125C90.5222 27.6418 90.4105 27.9652 90.1924 28.2127C90.0764 28.3262 89.9379 28.414 89.7858 28.4706C89.6336 28.5272 89.4713 28.5511 89.3093 28.541C89.1418 28.5483 88.9745 28.5208 88.8182 28.46C88.6619 28.3992 88.52 28.3066 88.4015 28.188C88.2879 28.0656 88.2003 27.9215 88.1439 27.7643C88.0874 27.6072 88.0633 27.4403 88.073 27.2737V26.4759L85.459 26.4971V27.3196C85.4401 28.0295 85.5979 28.7331 85.9182 29.367C86.2188 29.926 86.6836 30.3793 87.25 30.6661C87.8948 30.9805 88.6062 31.1344 89.3235 31.1144C90.0339 31.1344 90.7385 30.9805 91.3758 30.6661C91.9342 30.3769 92.3904 29.9235 92.6827 29.367C92.9961 28.731 93.1501 28.0283 93.1313 27.3196V26.0417C93.1553 25.4068 93.0243 24.7756 92.7499 24.2025C92.5342 23.7677 92.2241 23.3865 91.842 23.087Z" fill="white"/>
<path d="M101.542 15.5894H98.917V30.956H101.542V15.5894Z" fill="white"/>
<path d="M114.618 24.2025C114.4 23.7666 114.086 23.3854 113.7 23.087C113.25 22.7668 112.778 22.479 112.287 22.2256L112.252 22.2044L112.213 22.1833L111.966 22.0562C111.884 22.0138 111.807 21.9785 111.729 21.9432C111.319 21.7385 111.001 21.5619 110.772 21.4172C110.552 21.2775 110.361 21.0964 110.21 20.8842C110.057 20.6652 109.977 20.403 109.984 20.1358V19.1085C109.975 18.9562 109.998 18.8038 110.052 18.661C110.105 18.5182 110.188 18.3881 110.295 18.2789C110.415 18.1733 110.555 18.0924 110.706 18.0409C110.858 17.9894 111.018 17.9683 111.178 17.9789C111.334 17.9688 111.49 17.9934 111.635 18.0507C111.781 18.1081 111.912 18.1969 112.019 18.3107C112.232 18.57 112.339 18.9005 112.319 19.2356V20.1217L114.933 20.0899V19.2144C114.953 18.5071 114.8 17.8056 114.488 17.1705C114.197 16.6166 113.74 16.1674 113.181 15.8855C112.554 15.5745 111.86 15.4218 111.16 15.4407C110.447 15.4206 109.739 15.5732 109.097 15.8855C108.539 16.1683 108.082 16.6173 107.79 17.1705C107.477 17.7941 107.323 18.4852 107.342 19.1827V19.9769C107.317 20.6361 107.453 21.2913 107.737 21.8867C107.979 22.3668 108.321 22.7894 108.741 23.1258C109.201 23.4651 109.693 23.7595 110.21 24.0048L110.344 24.0683L110.425 24.1107L110.503 24.1531C110.934 24.3649 111.273 24.5484 111.524 24.6967C111.761 24.8364 111.97 25.0197 112.139 25.2368C112.298 25.4479 112.382 25.7066 112.375 25.9711V27.3125C112.394 27.6418 112.283 27.9652 112.064 28.2127C111.949 28.3262 111.81 28.414 111.658 28.4706C111.506 28.5272 111.343 28.5511 111.181 28.541C111.014 28.5483 110.847 28.5208 110.69 28.46C110.534 28.3992 110.392 28.3066 110.274 28.188C110.16 28.0656 110.072 27.9215 110.016 27.7643C109.959 27.6072 109.935 27.4403 109.945 27.2737V26.4759L107.331 26.4971V27.3196C107.312 28.0295 107.47 28.7331 107.79 29.367C108.09 29.9254 108.553 30.3788 109.118 30.6661C109.763 30.9805 110.475 31.1344 111.192 31.1144C111.902 31.1344 112.607 30.9805 113.244 30.6661C113.803 30.3769 114.259 29.9235 114.551 29.367C114.865 28.731 115.019 28.0283 115 27.3196V26.0417C115.024 25.4068 114.893 24.7756 114.618 24.2025Z" fill="white"/>
<path d="M37.0652 18.1131C37.067 18.4655 37.2079 18.8029 37.4573 19.0521C37.7066 19.3013 38.0443 19.4421 38.3969 19.4439H40.1984C40.5516 19.4439 40.8903 19.5842 41.14 19.8337C41.3898 20.0833 41.5301 20.4218 41.5301 20.7748C41.5301 21.1278 41.3898 21.4663 41.14 21.7158C40.8903 21.9654 40.5516 22.1056 40.1984 22.1056H29.4105C29.2301 22.0964 29.0497 22.1238 28.8802 22.1864C28.7108 22.249 28.5559 22.3454 28.4249 22.4698C28.2939 22.5941 28.1896 22.7438 28.1183 22.9097C28.047 23.0755 28.0103 23.2542 28.0103 23.4347C28.0103 23.6153 28.047 23.7939 28.1183 23.9598C28.1896 24.1257 28.2939 24.2754 28.4249 24.3997C28.5559 24.524 28.7108 24.6204 28.8802 24.683C29.0497 24.7456 29.2301 24.7731 29.4105 24.7638H42.9819C43.3348 24.7648 43.673 24.9053 43.9225 25.1547C44.1721 25.404 44.3127 25.742 44.3136 26.0947C44.3127 26.4474 44.1721 26.7853 43.9225 27.0347C43.673 27.2841 43.3348 27.4246 42.9819 27.4255H38.3898C38.0372 27.4274 37.6996 27.5682 37.4502 27.8174C37.2009 28.0666 37.06 28.404 37.0581 28.7564C37.06 29.1088 37.2009 29.4462 37.4502 29.6954C37.6996 29.9446 38.0372 30.0854 38.3898 30.0872H46.0798C46.7059 27.9475 47.0235 25.7294 47.0229 23.5C47.0229 23.0305 47.0229 22.5681 46.9806 22.1056H46.705C46.3635 22.0932 46.0399 21.95 45.8011 21.7058C45.5623 21.4615 45.4266 21.1348 45.422 20.7934C45.4175 20.4519 45.5445 20.1217 45.7767 19.8712C46.0089 19.6207 46.3287 19.469 46.6697 19.4475C46.5127 18.5478 46.3039 17.6579 46.0445 16.7822H38.3969C38.0443 16.7841 37.7066 16.9249 37.4573 17.1741C37.2079 17.4233 37.067 17.7607 37.0652 18.1131Z" fill="white"/>
<path d="M20.5092 18.1451C20.5083 17.7906 20.367 17.4508 20.1161 17.2001C19.8652 16.9494 19.5253 16.8082 19.1705 16.8072H4.08017C3.72511 16.8072 3.38459 16.6663 3.13352 16.4154C2.88245 16.1645 2.7414 15.8241 2.7414 15.4693C2.7414 15.1145 2.88245 14.7742 3.13352 14.5233C3.38459 14.2724 3.72511 14.1314 4.08017 14.1314H7.25931C7.61437 14.1314 7.95489 13.9904 8.20596 13.7395C8.45703 13.4886 8.59808 13.1483 8.59808 12.7935C8.59808 12.4386 8.45703 12.0983 8.20596 11.8474C7.95489 11.5965 7.61437 11.4556 7.25931 11.4556H3.32424C1.84721 13.9255 0.84003 16.6471 0.353516 19.4831H19.1705C19.525 19.4812 19.8644 19.3396 20.1151 19.0891C20.3657 18.8386 20.5074 18.4994 20.5092 18.1451Z" fill="white"/>
<path d="M23.515 47C29.0713 46.9994 34.4478 45.0325 38.6914 41.4481C42.935 37.8637 45.7715 32.8935 46.698 27.4185H0.332031C1.2585 32.8935 4.09497 37.8637 8.33857 41.4481C12.5822 45.0325 17.9587 46.9994 23.515 47Z" fill="url(#paint2_linear)"/>
<path d="M20.1347 39.6468C19.8332 39.6468 19.5346 39.5875 19.2561 39.4722C18.9775 39.3569 18.7244 39.1879 18.5112 38.9748C18.298 38.7617 18.1288 38.5088 18.0134 38.2304C17.8981 37.952 17.8387 37.6536 17.8387 37.3523C17.8387 37.0509 17.8981 36.7526 18.0134 36.4742C18.1288 36.1958 18.298 35.9428 18.5112 35.7298C18.7244 35.5167 18.9775 35.3477 19.2561 35.2324C19.5346 35.117 19.8332 35.0577 20.1347 35.0577H26.8462C27.2116 35.0577 27.562 34.9126 27.8204 34.6545C28.0787 34.3963 28.2239 34.0461 28.2239 33.6809C28.2239 33.3158 28.0787 32.9656 27.8204 32.7074C27.562 32.4492 27.2116 32.3042 26.8462 32.3042H1.71338C3.18954 35.9539 5.5596 39.1745 8.60593 41.6702C11.6523 44.1658 15.2772 45.8566 19.1479 46.5873C23.0185 47.3179 27.0108 47.0649 30.7581 45.8516C34.5055 44.6383 37.8877 42.5035 40.5942 39.6433H20.1347V39.6468Z" fill="url(#paint3_linear)"/>
</g>
<defs>
<linearGradient id="paint0_linear" x1="23.515" y1="-8.34873" x2="23.515" y2="28.4104" gradientUnits="userSpaceOnUse">
<stop stop-color="#15FFFB"/>
<stop offset="0.17" stop-color="#F9B233"/>
<stop offset="0.29" stop-color="#F38B30"/>
<stop offset="0.42" stop-color="#EE6C2E"/>
<stop offset="0.55" stop-color="#EB532C"/>
<stop offset="0.68" stop-color="#E8412B"/>
<stop offset="0.83" stop-color="#E7362A"/>
<stop offset="1" stop-color="#E6332A"/>
</linearGradient>
<linearGradient id="paint1_linear" x1="23.515" y1="33.2258" x2="23.515" y2="18.9324" gradientUnits="userSpaceOnUse">
<stop stop-color="#EE2216"/>
<stop offset="0.02" stop-color="#EE2517"/>
<stop offset="0.49" stop-color="#F47126"/>
<stop offset="0.83" stop-color="#F8A02F"/>
<stop offset="1" stop-color="#F9B233"/>
</linearGradient>
<linearGradient id="paint2_linear" x1="23.515" y1="40.9494" x2="23.515" y2="28.6222" gradientUnits="userSpaceOnUse">
<stop stop-color="#E6332A"/>
<stop offset="1" stop-color="#F9B233"/>
</linearGradient>
<linearGradient id="paint3_linear" x1="21.1556" y1="27.7433" x2="21.1556" y2="45.3233" gradientUnits="userSpaceOnUse">
<stop stop-color="#47E98B"/>
<stop offset="1" stop-color="#FFDE55"/>
</linearGradient>
<clipPath id="clip0">
<rect width="115" height="47" fill="white"/>
</clipPath>
</defs>
</svg>
