<svg width="22" height="22" viewBox="0 0 22 22" fill="none" xmlns="http://www.w3.org/2000/svg">
<path d="M11.4452 0.314453C9.36505 0.314453 7.3316 0.931292 5.60201 2.08697C3.87243 3.24264 2.52438 4.88524 1.72833 6.80706C0.932291 8.72888 0.72401 10.8436 1.12983 12.8838C1.53565 14.924 2.53734 16.798 4.00823 18.2689C5.47913 19.7398 7.35316 20.7415 9.39335 21.1473C11.4335 21.5531 13.5483 21.3448 15.4701 20.5488C17.3919 19.7528 19.0345 18.4047 20.1902 16.6751C21.3458 14.9455 21.9627 12.9121 21.9627 10.8319C21.9627 8.04251 20.8546 5.36736 18.8822 3.39495C16.9098 1.42254 14.2346 0.314453 11.4452 0.314453V0.314453ZM15.9414 10.6807L15.2118 15.4333C15.2118 15.4333 15.1526 16.1301 14.607 16.255C14.0539 16.2491 13.5189 16.0569 13.0886 15.7094C12.9637 15.6174 10.8076 14.2501 10.0451 13.5796C9.96535 13.5245 9.90075 13.4503 9.8572 13.3637C9.81365 13.2772 9.79254 13.181 9.79581 13.0842C9.79908 12.9874 9.82663 12.8929 9.87593 12.8095C9.92522 12.726 9.99468 12.6563 10.0779 12.6067L13.266 9.56325C13.6342 9.20171 13.9957 8.34717 12.4772 9.38577L8.22423 12.2912C8.00761 12.3872 7.77418 12.4396 7.5373 12.4452C7.30042 12.4508 7.06476 12.4097 6.84381 12.3241L4.87179 11.7128C4.87179 11.7128 4.14214 11.2592 5.38452 10.7991C8.42801 9.37262 12.1617 7.91332 15.4747 6.54605C15.4747 6.54605 16.5725 6.11878 16.4804 7.15081C16.4279 7.57808 16.1583 9.07024 15.9414 10.6807Z" fill="white"/>
</svg>
