<svg width="26" height="22" viewBox="0 0 26 22" fill="none" xmlns="http://www.w3.org/2000/svg">
<path fill-rule="evenodd" clip-rule="evenodd" d="M25.9278 2.78968C24.9587 3.21904 23.9305 3.50045 22.8778 3.62451C23.9864 2.96068 24.8158 1.91634 25.2113 0.686189C24.1717 1.31599 23.0308 1.7608 21.8392 2.00087C21.1103 1.22113 20.1637 0.67877 19.1224 0.444325C18.0811 0.209879 16.9933 0.294203 16.0006 0.686327C15.0079 1.07845 14.1561 1.76023 13.5561 2.64298C12.9561 3.52574 12.6357 4.56861 12.6364 5.63597C12.635 6.04315 12.6813 6.4491 12.7744 6.84548C10.6628 6.73296 8.59821 6.17872 6.7141 5.21855C4.83 4.25838 3.16827 2.91365 1.83627 1.27122C1.15784 2.44053 0.950812 3.82452 1.25738 5.14117C1.56394 6.45781 2.36103 7.60801 3.4862 8.35737C2.64355 8.33157 1.81903 8.10629 1.08033 7.70003V7.76576C1.08033 8.99184 1.50452 10.1802 2.28092 11.1291C3.05731 12.078 4.1381 12.7291 5.3399 12.9719C4.88315 13.0937 4.41249 13.1556 3.93977 13.156C3.60461 13.1556 3.27019 13.1248 2.94061 13.0639C3.28644 14.1176 3.95227 15.0373 4.84538 15.6947C5.73848 16.3522 6.81439 16.7147 7.92326 16.7319C6.04822 18.204 3.73371 19.0048 1.34984 19.0063C0.910843 19.0116 0.471901 18.9919 0.0351562 18.9471C2.46447 20.5082 5.29197 21.3366 8.17962 21.3333C17.9477 21.3333 23.2985 13.2414 23.2985 6.21443C23.2985 5.98436 23.2985 5.75429 23.2985 5.55709C24.3314 4.80489 25.2218 3.87441 25.9278 2.8094V2.78968Z" fill="white"/>
</svg>
