<svg width="52" height="53" viewBox="0 0 52 53" fill="none" xmlns="http://www.w3.org/2000/svg">
<path d="M26 52.0361C40.3594 52.0361 52 40.3955 52 26.0361C52 11.6767 40.3594 0.0361328 26 0.0361328C11.6406 0.0361328 0 11.6767 0 26.0361C0 40.3955 11.6406 52.0361 26 52.0361Z" fill="url(#paint0_linear)"/>
<path d="M25.9999 44.9871C36.4663 44.9871 44.9509 36.5024 44.9509 26.036C44.9509 15.5696 36.4663 7.08496 25.9999 7.08496C15.5335 7.08496 7.04883 15.5696 7.04883 26.036C7.04883 36.5024 15.5335 44.9871 25.9999 44.9871Z" fill="url(#paint1_linear)"/>
<path d="M15.011 26.5869C15.011 23.5602 16.0166 21.0402 18.0278 19.0269C20.0389 17.0135 22.6666 15.9981 25.9108 15.9805C29.1111 15.9805 31.7179 16.9476 33.7313 18.8818C35.782 20.8138 36.8074 23.3822 36.8074 26.5869C36.8074 29.664 35.7721 32.2027 33.7016 34.2029C31.6311 36.2031 29.0342 37.1988 25.9108 37.19C22.726 37.19 20.1082 36.2228 18.0574 34.2886C16.0067 32.3544 14.9912 29.7871 15.011 26.5869ZM19.9928 26.5869C19.9743 27.4014 20.1175 28.2115 20.414 28.9704C20.7106 29.7293 21.1546 30.4219 21.7204 31.0081C22.2524 31.5859 22.9011 32.044 23.6235 32.3521C24.346 32.6601 25.1256 32.8111 25.9108 32.7951C27.7835 32.7951 29.2375 32.2192 30.2728 31.0675C31.3281 29.8182 31.8815 28.2213 31.8256 26.5869C31.8256 24.7296 31.2597 23.2349 30.1277 22.103C29.5798 21.5427 28.923 21.1004 28.1978 20.8033C27.4727 20.5062 26.6944 20.3606 25.9108 20.3753C25.1225 20.3526 24.3382 20.4948 23.608 20.7929C22.8779 21.091 22.2181 21.5383 21.6709 22.1063C20.5609 23.2602 20.0049 24.7537 20.0027 26.5869H19.9928Z" fill="white"/>
<path d="M23.3624 23.9524H12.6571C11.2004 23.9524 10.0195 25.1333 10.0195 26.59C10.0195 28.0467 11.2004 29.2276 12.6571 29.2276H23.3624C24.8191 29.2276 26 28.0467 26 26.59C26 25.1333 24.8191 23.9524 23.3624 23.9524Z" fill="white"/>
<defs>
<linearGradient id="paint0_linear" x1="26" y1="49.5766" x2="26" y2="-0.0265111" gradientUnits="userSpaceOnUse">
<stop stop-color="#EE2216"/>
<stop offset="1" stop-color="#F9B233"/>
</linearGradient>
<linearGradient id="paint1_linear" x1="25.9999" y1="3.05275" x2="25.9999" y2="40.4801" gradientUnits="userSpaceOnUse">
<stop stop-color="#EE2216"/>
<stop offset="0.67" stop-color="#F9B233"/>
</linearGradient>
</defs>
</svg>
